HIERARCHY
ROOT Hips
{
  OFFSET 0 0.240689 0
  CHANNELS 6 Xposition Yposition Zposition Zrotation Xrotation Yrotation
  JOINT Bip01_Spine0
  {
    OFFSET 0 -24.7459 49.7988
    CHANNELS 6 Xposition Yposition Zposition Zrotation Xrotation Yrotation
    JOINT Bip01_Pelvis
    {
      OFFSET 0 0 0
      CHANNELS 6 Xposition Yposition Zposition Zrotation Xrotation Yrotation
      JOINT Bip01_Spine0_Tail
      {
        OFFSET -6.47486 -3.86022 0
        CHANNELS 6 Xposition Yposition Zposition Zrotation Xrotation Yrotation
        JOINT Bip01_Spine0_Tail1
        {
          OFFSET 10.3837 -0.00825882 0
          CHANNELS 6 Xposition Yposition Zposition Zrotation Xrotation Yrotation
          JOINT Bip01_Spine0_Tail2
          {
            OFFSET 10.3837 -0.00826263 0
            CHANNELS 6 Xposition Yposition Zposition Zrotation Xrotation Yrotation
            JOINT Bip01_Spine0_Tail3
            {
              OFFSET 10.3837 -0.00825882 0
              CHANNELS 6 Xposition Yposition Zposition Zrotation Xrotation Yrotation
              JOINT Bip01_Spine0_Tail4
              {
                OFFSET 10.3837 -0.00826263 0
                CHANNELS 6 Xposition Yposition Zposition Zrotation Xrotation Yrotation
                End Site
                {
                  OFFSET 0 0 0
                }
              }
            }
          }
        }
      }
      JOINT Bip01_R_Thigh
      {
        OFFSET 0 -1.52588e-005 -8.75617
        CHANNELS 6 Xposition Yposition Zposition Zrotation Xrotation Yrotation
        JOINT Bip01_R_Calf
        {
          OFFSET 19.7638 0 0
          CHANNELS 6 Xposition Yposition Zposition Zrotation Xrotation Yrotation
          JOINT Bip01_R_Foot
          {
            OFFSET 18.6534 0 0
            CHANNELS 6 Xposition Yposition Zposition Zrotation Xrotation Yrotation
            JOINT Bip01_R_Toe0
            {
              OFFSET 5.09145 13.9567 0
              CHANNELS 6 Xposition Yposition Zposition Zrotation Xrotation Yrotation
              JOINT Bip01_R_Toe01
              {
                OFFSET 4.28803 0 0
                CHANNELS 6 Xposition Yposition Zposition Zrotation Xrotation Yrotation
                JOINT Bip01_R_Toe02
                {
                  OFFSET 3.85801 0 0
                  CHANNELS 6 Xposition Yposition Zposition Zrotation Xrotation Yrotation
                  End Site
                  {
                    OFFSET 0 0 0
                  }
                }
              }
            }
          }
        }
      }
      JOINT Bip01_L_Thigh
      {
        OFFSET 0 1.52588e-005 8.75617
        CHANNELS 6 Xposition Yposition Zposition Zrotation Xrotation Yrotation
        JOINT Bip01_L_Calf
        {
          OFFSET 19.7638 0 0
          CHANNELS 6 Xposition Yposition Zposition Zrotation Xrotation Yrotation
          JOINT Bip01_L_Foot
          {
            OFFSET 18.6534 0 0
            CHANNELS 6 Xposition Yposition Zposition Zrotation Xrotation Yrotation
            JOINT Bip01_L_Toe0
            {
              OFFSET 5.09144 13.9567 0
              CHANNELS 6 Xposition Yposition Zposition Zrotation Xrotation Yrotation
              JOINT Bip01_L_Toe01
              {
                OFFSET 4.28802 0 0
                CHANNELS 6 Xposition Yposition Zposition Zrotation Xrotation Yrotation
                JOINT Bip01_L_Toe02
                {
                  OFFSET 3.85801 0 0
                  CHANNELS 6 Xposition Yposition Zposition Zrotation Xrotation Yrotation
                  End Site
                  {
                    OFFSET 0 0 0
                  }
                }
              }
            }
          }
        }
      }
      JOINT Bip01_Spine
      {
        OFFSET 9.14835 -0.00640869 -1.1e-005
        CHANNELS 6 Xposition Yposition Zposition Zrotation Xrotation Yrotation
        JOINT Bip01_Spine1
        {
          OFFSET 8.04366 -0.00638199 0
          CHANNELS 6 Xposition Yposition Zposition Zrotation Xrotation Yrotation
          JOINT Bip01_Spine2
          {
            OFFSET 8.04367 -0.00639343 0
            CHANNELS 6 Xposition Yposition Zposition Zrotation Xrotation Yrotation
            JOINT Bip01_Spine3
            {
              OFFSET 8.04304 -0.00831222 0
              CHANNELS 6 Xposition Yposition Zposition Zrotation Xrotation Yrotation
              JOINT Bip01_Neck
              {
                OFFSET 10.6685 1.06813 0
                CHANNELS 6 Xposition Yposition Zposition Zrotation Xrotation Yrotation
                JOINT Bip01_R_Clavicle
                {
                  OFFSET -3.21661 -4.89635 -9.04802
                  CHANNELS 6 Xposition Yposition Zposition Zrotation Xrotation Yrotation
                  JOINT Bip01_R_UpperArm
                  {
                    OFFSET 19.0492 0 0
                    CHANNELS 6 Xposition Yposition Zposition Zrotation Xrotation Yrotation
                    JOINT Bip01_R_Forearm
                    {
                      OFFSET 10.3706 0 0
                      CHANNELS 6 Xposition Yposition Zposition Zrotation Xrotation Yrotation
                      JOINT Bip01_R_Hand
                      {
                        OFFSET 22.8632 0 0
                        CHANNELS 6 Xposition Yposition Zposition Zrotation Xrotation Yrotation
                        JOINT Bip01_R_Finger0
                        {
                          OFFSET 6.48259 0.103651 0.504496
                          CHANNELS 6 Xposition Yposition Zposition Zrotation Xrotation Yrotation
                          JOINT Bip01_R_Finger01
                          {
                            OFFSET 3.66847 0 0
                            CHANNELS 6 Xposition Yposition Zposition Zrotation Xrotation Yrotation
                            End Site
                            {
                              OFFSET 0 0 0
                            }
                          }
                        }
                      }
                    }
                  }
                }
                JOINT Bip01_L_Clavicle
                {
                  OFFSET -3.21661 -4.89641 9.04797
                  CHANNELS 6 Xposition Yposition Zposition Zrotation Xrotation Yrotation
                  JOINT Bip01_L_UpperArm
                  {
                    OFFSET 19.0492 0 0
                    CHANNELS 6 Xposition Yposition Zposition Zrotation Xrotation Yrotation
                    JOINT Bip01_L_Forearm
                    {
                      OFFSET 10.3706 0 0
                      CHANNELS 6 Xposition Yposition Zposition Zrotation Xrotation Yrotation
                      JOINT Bip01_L_Hand
                      {
                        OFFSET 22.8631 0 0
                        CHANNELS 6 Xposition Yposition Zposition Zrotation Xrotation Yrotation
                        JOINT Bip01_L_Finger0
                        {
                          OFFSET 6.48257 0.103655 -0.504492
                          CHANNELS 6 Xposition Yposition Zposition Zrotation Xrotation Yrotation
                          JOINT Bip01_L_Finger01
                          {
                            OFFSET 3.66844 0 0
                            CHANNELS 6 Xposition Yposition Zposition Zrotation Xrotation Yrotation
                            End Site
                            {
                              OFFSET 0 0 0
                            }
                          }
                        }
                      }
                    }
                  }
                }
                JOINT Bip01_Neck1
                {
                  OFFSET 7.52459 -0.00656509 0
                  CHANNELS 6 Xposition Yposition Zposition Zrotation Xrotation Yrotation
                  JOINT Bip01_Neck2
                  {
                    OFFSET 8.4783 -0.00588226 0
                    CHANNELS 6 Xposition Yposition Zposition Zrotation Xrotation Yrotation
                    JOINT Bip01_Head
                    {
                      OFFSET 8.41606 0 0
                      CHANNELS 6 Xposition Yposition Zposition Zrotation Xrotation Yrotation
                      JOINT EyesBlue
                      {
                        OFFSET 0 0 0
                        CHANNELS 6 Xposition Yposition Zposition Zrotation Xrotation Yrotation
                        JOINT EyesBlue_2
                        {
                          OFFSET 0 -0.500007 0
                          CHANNELS 6 Xposition Yposition Zposition Zrotation Xrotation Yrotation
                          End Site
                          {
                            OFFSET 0 0 0
                          }
                        }
                      }
                      JOINT Bip01_Head2_Eyeleds
                      {
                        OFFSET 6.52751 7.61746 2.2e-005
                        CHANNELS 6 Xposition Yposition Zposition Zrotation Xrotation Yrotation
                        End Site
                        {
                          OFFSET 0 0 0
                        }
                      }
                      JOINT Bip01_Head_Muzzle
                      {
                        OFFSET 2.88628 13.9448 3.88994
                        CHANNELS 6 Xposition Yposition Zposition Zrotation Xrotation Yrotation
                        End Site
                        {
                          OFFSET 0 0 0
                        }
                      }
                      JOINT Bip01_Head1_Jaw
                      {
                        OFFSET 0.271065 1.32405 0
                        CHANNELS 6 Xposition Yposition Zposition Zrotation Xrotation Yrotation
                        JOINT _Bip01_Head11_TungeControler
                        {
                          OFFSET 4.61616 5.82872 0
                          CHANNELS 6 Xposition Yposition Zposition Zrotation Xrotation Yrotation
                          JOINT _Bip01_Ponytail3_tunge
                          {
                            OFFSET 5.17785 2.98805 0
                            CHANNELS 6 Xposition Yposition Zposition Zrotation Xrotation Yrotation
                            JOINT Bip01_Ponytail31
                            {
                              OFFSET 5.57569 0 0
                              CHANNELS 6 Xposition Yposition Zposition Zrotation Xrotation Yrotation
                              JOINT Bip01_Ponytail32
                              {
                                OFFSET 2.93165 0 0
                                CHANNELS 6 Xposition Yposition Zposition Zrotation Xrotation Yrotation
                                JOINT Bip01_Ponytail3Nub
                                {
                                  OFFSET 3.30155 0 0
                                  CHANNELS 6 Xposition Yposition Zposition Zrotation Xrotation Yrotation
                                  End Site
                                  {
                                    OFFSET 0 0 0
                                  }
                                }
                              }
                            }
                          }
                        }
                        JOINT Bip01_Head_JawNub
                        {
                          OFFSET 15.5776 -0.000389099 0
                          CHANNELS 6 Xposition Yposition Zposition Zrotation Xrotation Yrotation
                          End Site
                          {
                            OFFSET 0 0 0
                          }
                        }
                      }
                      JOINT Bip01_Ponytail2
                      {
                        OFFSET 9.40334 1.03973 -6.51764
                        CHANNELS 6 Xposition Yposition Zposition Zrotation Xrotation Yrotation
                        JOINT Bip01_Ponytail21
                        {
                          OFFSET 2.77018 -0.00640106 1.33514e-005
                          CHANNELS 6 Xposition Yposition Zposition Zrotation Xrotation Yrotation
                          End Site
                          {
                            OFFSET 0 0 0
                          }
                        }
                      }
                      JOINT Bip01_Ponytail1
                      {
                        OFFSET 9.40368 1.03969 6.51768
                        CHANNELS 6 Xposition Yposition Zposition Zrotation Xrotation Yrotation
                        JOINT Bip01_Ponytail11
                        {
                          OFFSET 2.77018 -0.00640487 0
                          CHANNELS 6 Xposition Yposition Zposition Zrotation Xrotation Yrotation
                          End Site
                          {
                            OFFSET 0 0 0
                          }
                        }
                      }
                    }
                  }
                }
              }
            }
          }
        }
      }
    }
  }
}
MOTION
Frames:	4
Frame Time:	0.0333333
0.686823 -0.437514 -3.03094 -0 -90 -0 0.000951 -28.7008 46.3542 88.7407 -0.00654265 98.0391 0 0 0 -89.9997 -0.000328185 -101.487 -6.47532 -3.85985 -8e-006 142.96 0.00169359 0.965889 10.3809 -0.0079 1.0883e-009 -17.1658 0.00115399 0.967507 10.3809 -0.007888 4.0182e-010 -17.5007 0.0013626 0.967992 10.3807 -0.007797 0.000137 18.2899 0.51496 0.817294 10.3808 -0.007797 0.000132 12.152 0.43408 0.862696 7e-006 -1.1e-005 -8.75617 -106.849 -5.87768 160.581 19.7638 3e-006 -1.52767e-013 -62.6553 0.00060226 0.00245523 18.6534 3e-006 1e-006 -17.2013 -2.56758 -1.32871 5.09143 13.9567 -1.73533e-006 128.933 11.8812 5.33499 4.288 -7.10542e-015 3.55271e-015 51.5019 0.000721027 0.000259158 3.85804 -1.2e-005 -1.48503e-012 -45 4.22515e-006 1.21105e-005 -1.5e-005 1.1e-005 8.75617 -123.924 3.88827 -162.741 19.7638 1.27898e-013 3e-006 -67.0885 0.000589009 0.00332915 18.6534 -3e-006 1.88294e-013 1.36708 -0.657436 3.12964 5.09143 13.9567 1.62883e-007 91.066 -11.1878 -7.08765 4.288 -1.06581e-014 7.10543e-015 52.2907 -3.03073e-005 4.24503e-006 3.858 1e-006 4.68958e-013 -2.5 -1.85804e-005 4.24087e-007 9.1478 -0.006378 1.2e-005 -2.73324 -0.000237836 -8.31102e-005 8.04417 -0.006385 -6.31481e-010 6.72114 1.78927e-005 -1.90196e-005 8.04456 -0.006343 4.80571e-010 10.1946 8.5948e-006 -1.80344e-005 8.04246 -0.008255 8.74543e-010 -6.09043 7.5177e-006 2.22087e-005 10.6678 1.06833 1.88967e-006 -16.9494 -3.48125e-005 5.26947e-005 -2.8965 -5.09208 -9.04791 -163.095 -74.4174 129.5 19.0492 3.19744e-014 1e-006 86.5757 1.75584 -97.2165 10.3706 -9.99999e-007 1e-006 -116.158 0.000571697 -0.00206501 22.8631 -3e-006 3.44613e-013 -16.73 19.6236 -1.78119 6.48257 0.103619 0.504502 -28.8506 -12.085 -9.77751 3.66844 9.99999e-007 1.91847e-013 40.1087 2.09741e-005 6.33363e-007 -2.89639 -5.09204 9.04777 -163.811 74.4765 -128.756 19.0492 0 1e-006 93.0584 -2.2916 98.603 10.3706 1.51878e-013 1e-006 -112.085 0.000155212 -0.000647387 22.8631 9.99999e-007 -1e-006 -17.5887 -23.8614 1.11126 6.48257 0.103649 -0.504495 -8.97365 14.6403 5.13871 3.66843 8.88178e-015 -3e-006 25.6076 0.000184177 8.76257e-005 7.52862 -0.006282 -2.54301e-009 15.9101 2.63621e-005 -5.22939e-005 8.47668 -0.006439 3.00006e-005 0.675031 0.00150845 0.00188444 8.41604 7.10543e-015 -3.55271e-015 -104.191 -0.00167183 -0.00160207 -3e-006 -2.84217e-014 -3e-006 -23.1098 1.37701e-015 90 2.38419e-006 -0.5 8.8705e-008 75.9091 90 14.0909 0 0 0 -104.487 1.52588e-005 -180 7.36062 13.7595 3.88787 -22.989 1.37021e-015 90 0 0 0 -73.9062 0.00012207 -180 0 0 0 -138.736 1.5075e-005 -4.03054e-006 0 0 0 156.768 -2.2972 -5.29344 0 0 0 -13.7181 -0.763458 5.57222 0 0 0 -25.1519 -11.7761 9.81023 0 0 0 -26.1943 -4.14545e-006 -4.21514e-006 15.5776 -0.0004 -6.99996e-006 1.10348e-032 -3.97569e-016 1.59028e-015 9.40549 1.04068 -6.51571 55.036 -35.4377 91.5 2.76859 -0.006118 -0.001373 -12.5105 14.055 23.3579 9.40584 1.04064 6.51574 36.6759 35.5587 -85.0949 2.76858 -0.006113 0.00138 -6.4054 -26.8396 -20.427 
0.79689 -0.446886 -3.0898 -0 -90 -0 0.000951 -28.7008 46.3574 88.7405 -0.00648321 98.0582 0 0 0 -89.9997 -0.000328185 -101.487 -6.47532 -3.85985 -8e-006 142.96 0.00221736 1.307 10.3809 -0.0079 1.09603e-009 -17.1678 0.00175267 1.30857 10.3809 -0.007888 4.0141e-010 -17.5026 0.00134331 1.30898 10.3807 -0.007797 0.000137 17.4906 0.609309 1.158 10.3808 -0.007797 0.000132 11.4891 0.511802 1.20352 7e-006 -1.1e-005 -8.75617 -106.905 -5.86598 160.588 19.7638 3e-006 -1.59872e-013 -62.6553 0.000602256 0.00245523 18.6534 3e-006 1e-006 -17.1253 -2.5647 -1.32467 5.09143 13.9567 -1.71916e-006 128.859 11.8744 5.35016 4.288 1.06581e-014 7.10543e-015 51.5019 0.000721048 0.000259159 3.85804 -1.2e-005 -1.49569e-012 -45 4.21647e-006 1.20946e-005 -1.5e-005 1.1e-005 8.75617 -124.009 3.87137 -162.749 19.7638 1.35003e-013 3e-006 -67.0775 0.000589609 0.00332903 18.6534 -3e-006 1.77636e-013 1.34039 -0.658744 3.13596 5.09143 13.9567 1.68177e-007 91.044 -11.1827 -7.09194 4.288 -1.77636e-015 0 52.2287 -3.03314e-005 4.24123e-006 3.858 1e-006 4.76064e-013 -2.5 -1.85762e-005 4.24944e-007 9.1478 -0.006378 1.2e-005 -2.73338 -0.000237828 -8.31107e-005 8.04417 -0.006385 -6.30542e-010 6.72098 1.78759e-005 -1.90186e-005 8.04456 -0.006343 4.79635e-010 10.1945 8.59392e-006 -1.80359e-005 8.04246 -0.008255 8.73203e-010 -6.09057 7.51625e-006 2.22097e-005 10.6678 1.06833 1.88987e-006 -16.9496 -3.4812e-005 5.26977e-005 -2.89516 -5.09286 -9.04791 -163.082 -74.4174 129.5 19.0492 1.95399e-014 1e-006 86.5909 1.97011 -97.2543 10.3706 -9.99999e-007 1e-006 -116.04 0.000567412 -0.00206608 22.8631 -3e-006 3.51719e-013 -16.6074 19.5872 -1.78624 6.48257 0.103619 0.504502 -28.8506 -12.085 -9.77751 3.66844 9.99999e-007 1.86518e-013 40.1087 2.08326e-005 7.3396e-007 -2.89502 -5.0928 9.04777 -163.795 74.4763 -128.759 19.0492 0 1e-006 93.0767 -2.49162 98.6202 10.3706 1.46549e-013 1e-006 -111.977 0.000153965 -0.000647575 22.8631 9.99999e-007 -1e-006 -17.4765 -23.8374 1.10172 6.48257 0.103649 -0.504495 -8.97365 14.6403 5.13871 3.66843 2.4869e-014 -3e-006 25.6076 0.000184147 8.76394e-005 7.52862 -0.006282 -2.54405e-009 15.9227 2.63526e-005 -5.2301e-005 8.47668 -0.006439 3.00006e-005 0.737842 0.00151053 0.00188279 8.41604 0 -2.66454e-015 -104.224 -0.00167093 -0.00160301 -3e-006 1.42108e-014 -3e-006 -23.1098 1.37701e-015 90 2.38419e-006 -0.5 8.87012e-008 75.9098 90 14.0902 0 0 0 -104.668 1.52588e-005 -180 7.27681 13.7609 3.88787 -22.989 1.37021e-015 90 0 0 0 -73.9062 0.00012207 -180 0 0 0 -138.736 1.51097e-005 -4.02585e-006 0 0 0 156.768 -2.2972 -5.29344 0 0 0 -13.7181 -0.763459 5.57222 0 0 0 -25.1519 -11.7761 9.81023 0 0 0 -26.1943 -4.14248e-006 -4.20692e-006 15.5776 -0.0004 -6.99996e-006 3.18055e-015 0 1.59028e-015 9.40549 1.04068 -6.51571 55.0354 -35.4382 91.5978 2.76859 -0.006118 -0.001373 -12.5094 14.0476 23.3628 9.40584 1.04064 6.51574 36.7161 35.5663 -85.1553 2.76858 -0.006113 0.00138 -6.43681 -26.7722 -20.4511 
0.757202 -0.55172 -2.9356 -0 -90 -0 0.000951 -28.7008 46.3631 88.7404 -0.00651915 98.1032 0 0 0 -89.9997 -0.000328185 -101.487 -6.47532 -3.85985 -8e-006 142.96 0.00252233 1.68029 10.3809 -0.0079 1.10578e-009 -17.1705 0.00242923 1.6819 10.3809 -0.007888 4.01089e-010 -17.5054 0.0014513 1.68247 10.3807 -0.007797 0.000137 16.0176 0.69683 1.53928 10.3808 -0.007797 0.000132 10.2684 0.583136 1.58268 7e-006 -1.1e-005 -8.75617 -106.974 -5.85148 160.594 19.7638 3e-006 -1.7053e-013 -62.6553 0.000602259 0.00245522 18.6534 3e-006 1e-006 -16.9878 -2.56356 -1.31253 5.09143 13.9567 -1.69908e-006 128.706 11.8603 5.38177 4.288 1.77636e-014 -1.06581e-014 51.5019 0.000721063 0.000259157 3.85804 -1.2e-005 -1.47793e-012 -45 4.20759e-006 1.20856e-005 -1.5e-005 1.1e-005 8.75617 -124.105 3.85257 -162.758 19.7638 1.3145e-013 3e-006 -67.0537 0.000590958 0.00332878 18.6534 -3e-006 1.84741e-013 1.34947 -0.6582 3.13811 5.09143 13.9567 1.77099e-007 90.9932 -11.1732 -7.10185 4.288 -3.55271e-015 -7.10543e-015 52.1091 -3.0423e-005 4.23206e-006 3.858 1e-006 4.76064e-013 -2.5 -1.85653e-005 4.28634e-007 9.1478 -0.006378 1.2e-005 -2.74751 -0.000237822 -8.3168e-005 8.04417 -0.006385 -6.32195e-010 6.70688 1.78573e-005 -1.9017e-005 8.04456 -0.006343 4.75443e-010 10.1803 8.61704e-006 -1.8042e-005 8.04246 -0.008255 8.7052e-010 -6.10469 7.49458e-006 2.2212e-005 10.6678 1.06833 1.89052e-006 -16.9701 -3.4986e-005 5.27037e-005 -2.8926 -5.09432 -9.04791 -163.053 -74.4173 129.5 19.0492 3.37508e-014 1e-006 86.6006 2.18007 -97.3248 10.3706 -9.99999e-007 1e-006 -115.91 0.00056269 -0.00206725 22.8631 -3e-006 3.41061e-013 -16.479 19.521 -1.79925 6.48257 0.103619 0.504502 -28.8506 -12.085 -9.77751 3.66844 9.99999e-007 1.81188e-013 40.1087 2.07251e-005 8.02883e-007 -2.8924 -5.09429 9.04777 -163.759 74.4759 -128.767 19.0492 -1.42109e-014 1e-006 93.0897 -2.68678 98.6516 10.3706 1.37668e-013 1e-006 -111.857 0.000152581 -0.000647783 22.8631 9.99999e-007 -1e-006 -17.3611 -23.7967 1.08877 6.48257 0.103649 -0.504495 -8.97365 14.6403 5.13871 3.66843 -8.88178e-015 -3e-006 25.6076 0.000184152 8.76364e-005 7.52862 -0.006282 -2.56471e-009 15.9582 2.64661e-005 -5.23656e-005 8.47668 -0.006439 3.00006e-005 0.856769 0.00151446 0.00187966 8.41604 -7.10543e-015 0 -104.285 -0.00166922 -0.00160479 -3e-006 0 -3e-006 -23.1098 1.37701e-015 90 2.38419e-006 -0.5 8.87459e-008 75.9008 90 14.0992 0 0 0 -104.849 1.52588e-005 -180 7.19299 13.7624 3.88787 -22.989 1.37021e-015 90 0 0 0 -73.9062 0.00012207 -180 0 0 0 -138.736 1.51371e-005 -4.01055e-006 0 0 0 156.768 -2.2972 -5.29344 0 0 0 -13.7181 -0.763459 5.57222 0 0 0 -25.1519 -11.7761 9.81023 0 0 0 -26.1943 -4.13563e-006 -4.19802e-006 15.5776 -0.0004 -6.99996e-006 -3.18055e-015 0 1.59028e-015 9.40549 1.04068 -6.51571 55.0348 -35.4383 91.7842 2.76859 -0.006118 -0.001373 -12.5082 14.0402 23.3678 9.40584 1.04064 6.51574 36.8298 35.5878 -85.3259 2.76858 -0.006113 0.00138 -6.4966 -26.6442 -20.4971 
0.786196 -0.539052 -2.88734 -0 -90 -0 0.000951 -28.7008 46.3709 88.7411 -0.00687413 98.1676 0 0 0 -89.9997 -0.000328185 -101.487 -6.47532 -3.85985 -8e-006 142.96 0.00260531 2.07306 10.3809 -0.0079 1.11687e-009 -17.1742 0.0025642 2.07489 10.3809 -0.007888 4.00713e-010 -17.5091 0.00167473 2.07519 10.3807 -0.007797 0.000137 13.9692 0.768365 1.94826 10.3808 -0.007797 0.000132 8.57126 0.641471 1.98731 7e-006 -1.1e-005 -8.75617 -107.05 -5.83633 160.601 19.7638 3e-006 -1.52767e-013 -62.6553 0.000602268 0.00245522 18.6534 3e-006 1e-006 -16.7985 -2.56417 -1.29236 5.09143 13.9567 -1.6756e-006 128.476 11.8391 5.42885 4.288 -2.4869e-014 3.55271e-015 51.5019 0.000721069 0.00025915 3.85804 -1.2e-005 -1.48148e-012 -45 4.19865e-006 1.20849e-005 -1.5e-005 1.1e-005 8.75617 -124.205 3.83317 -162.767 19.7638 1.24345e-013 3e-006 -67.0194 0.000592918 0.00332843 18.6534 -3e-006 1.81188e-013 1.38803 -0.65617 3.13498 5.09143 13.9567 1.88755e-007 90.9167 -11.1596 -7.11674 4.288 -7.10543e-015 0 51.9342 -3.05742e-005 4.21754e-006 3.858 1e-006 4.72511e-013 -2.5 -1.85451e-005 4.34816e-007 9.1478 -0.006378 1.2e-005 -2.77067 -0.000237816 -8.32618e-005 8.04417 -0.006385 -6.35311e-010 6.68371 1.78348e-005 -1.90147e-005 8.04456 -0.006343 4.69017e-010 10.1571 8.65557e-006 -1.80512e-005 8.04246 -0.008255 8.66799e-010 -6.12786 7.45932e-006 2.22154e-005 10.6678 1.06833 1.89149e-006 -17.0036 -3.52687e-005 5.27121e-005 -2.8889 -5.0964 -9.04791 -163.013 -74.417 129.499 19.0492 3.19744e-014 1e-006 86.604 2.3711 -97.4266 10.3706 -9.99999e-007 1e-006 -115.777 0.000557811 -0.00206844 22.8631 -3e-006 3.30403e-013 -16.3526 19.427 -1.81956 6.48257 0.103619 0.504502 -28.8506 -12.085 -9.77751 3.66844 9.99999e-007 1.84741e-013 40.1087 2.06396e-005 8.4876e-007 -2.88869 -5.09641 9.04777 -163.707 74.4752 -128.778 19.0492 -1.06581e-014 1e-006 93.096 -2.86477 98.6967 10.3706 1.3145e-013 1e-006 -111.733 0.000151142 -0.000648009 22.8631 9.99999e-007 -1e-006 -17.2508 -23.741 1.07182 6.48257 0.103649 -0.504495 -8.97365 14.6403 5.13871 3.66843 4.08562e-014 -3e-006 25.6076 0.00018417 8.76257e-005 7.52862 -0.006282 -2.59779e-009 16.0163 2.66504e-005 -5.24699e-005 8.47668 -0.006439 3.00006e-005 1.02851 0.00152012 0.00187513 8.41604 7.10543e-015 6.21725e-015 -104.373 -0.00166675 -0.00160734 -3e-006 0 -3e-006 -23.1098 1.37701e-015 90 2.38419e-006 -0.5 8.88145e-008 75.8869 90 14.1131 0 0 0 -105.03 1.52588e-005 -180 7.10917 13.7638 3.88787 -22.989 1.37021e-015 90 0 0 0 -73.9062 0.00012207 -180 0 0 0 -138.736 1.51724e-005 -3.98851e-006 0 0 0 156.768 -2.2972 -5.29344 0 0 0 -13.7181 -0.763459 5.57222 0 0 0 -25.1519 -11.7761 9.81023 0 0 0 -26.1943 -4.12588e-006 -4.18629e-006 15.5776 -0.0004 -6.99996e-006 0 3.97569e-016 -0 9.40549 1.04068 -6.51571 55.0347 -35.4383 92.0537 2.76859 -0.006118 -0.001373 -12.5054 14.0224 23.3797 9.40584 1.04064 6.51574 37.0165 35.6222 -85.606 2.76858 -0.006113 0.00138 -6.58271 -26.4591 -20.5626 
